<svg xmlns="http://www.w3.org/2000/svg" width="1120" height="650" viewBox="0 0 1120 650">
<rect width="100%" height="100%" fill="#ffffff"/>
<style>text{font-family:Inter,system-ui,-apple-system,sans-serif;fill:#1f2937}.grid{stroke:#e5e7eb;stroke-width:1}.axis{stroke:#374151;stroke-width:1.2}.tick{font-size:12px;fill:#4b5563}.title{font-size:22px;font-weight:700}.subtitle{font-size:12px;fill:#6b7280}.legend{font-size:12px}</style>
<text class="title" x="90.00" y="34.00" font-size="12" text-anchor="start">Cross-fitted operation at nominal 1% FPR</text>
<text class="subtitle" x="90.00" y="57.00" font-size="12" text-anchor="start">Actual FPR on held-out nonmembers under IBM-derived noisy Aer</text>
<line class="grid" x1="90.00" y1="572.00" x2="810.00" y2="572.00" stroke="#374151" stroke-width="1.0" opacity="1.0"/>
<text class="tick" x="78.00" y="576.00" font-size="12" text-anchor="end">0.5%</text>
<line class="grid" x1="90.00" y1="476.00" x2="810.00" y2="476.00" stroke="#374151" stroke-width="1.0" opacity="1.0"/>
<text class="tick" x="78.00" y="480.00" font-size="12" text-anchor="end">0.8%</text>
<line class="grid" x1="90.00" y1="380.00" x2="810.00" y2="380.00" stroke="#374151" stroke-width="1.0" opacity="1.0"/>
<text class="tick" x="78.00" y="384.00" font-size="12" text-anchor="end">1.0%</text>
<line class="grid" x1="90.00" y1="284.00" x2="810.00" y2="284.00" stroke="#374151" stroke-width="1.0" opacity="1.0"/>
<text class="tick" x="78.00" y="288.00" font-size="12" text-anchor="end">1.3%</text>
<line class="grid" x1="90.00" y1="188.00" x2="810.00" y2="188.00" stroke="#374151" stroke-width="1.0" opacity="1.0"/>
<text class="tick" x="78.00" y="192.00" font-size="12" text-anchor="end">1.5%</text>
<line class="grid" x1="90.00" y1="92.00" x2="810.00" y2="92.00" stroke="#374151" stroke-width="1.0" opacity="1.0"/>
<text class="tick" x="78.00" y="96.00" font-size="12" text-anchor="end">1.8%</text>
<line class="axis" x1="90.00" y1="92.00" x2="90.00" y2="572.00" stroke="#374151" stroke-width="1.0" opacity="1.0"/>
<line class="axis" x1="90.00" y1="572.00" x2="810.00" y2="572.00" stroke="#374151" stroke-width="1.0" opacity="1.0"/>
<text class="tick" x="90.00" y="596.00" font-size="12" text-anchor="middle">128</text>
<text class="tick" x="450.00" y="596.00" font-size="12" text-anchor="middle">512</text>
<text class="tick" x="810.00" y="596.00" font-size="12" text-anchor="middle">1024</text>
<text x="450.00" y="632.00" font-size="13" text-anchor="middle">Shots</text>
<text x="22.00" y="332.00" font-size="13" text-anchor="middle" transform="rotate(-90.0 22.00 332.00)">Actual false-positive rate</text>
<line x1="90.00" y1="387.38" x2="810.00" y2="387.38" stroke="#6b7280" stroke-width="1.5" opacity="1.0" stroke-dasharray="6 5"/>
<text x="807.00" y="380.38" font-size="11" text-anchor="end" fill="#6b7280">nominal 1%</text>
<line x1="90.00" y1="428.00" x2="90.00" y2="248.31" stroke="#047857" stroke-width="1.5" opacity="0.42"/>
<line x1="86.00" y1="428.00" x2="94.00" y2="428.00" stroke="#047857" stroke-width="1.5" opacity="0.42"/>
<line x1="86.00" y1="248.31" x2="94.00" y2="248.31" stroke="#047857" stroke-width="1.5" opacity="0.42"/>
<line x1="450.00" y1="400.92" x2="450.00" y2="210.15" stroke="#047857" stroke-width="1.5" opacity="0.42"/>
<line x1="446.00" y1="400.92" x2="454.00" y2="400.92" stroke="#047857" stroke-width="1.5" opacity="0.42"/>
<line x1="446.00" y1="210.15" x2="454.00" y2="210.15" stroke="#047857" stroke-width="1.5" opacity="0.42"/>
<line x1="810.00" y1="362.77" x2="810.00" y2="288.92" stroke="#047857" stroke-width="1.5" opacity="0.42"/>
<line x1="806.00" y1="362.77" x2="814.00" y2="362.77" stroke="#047857" stroke-width="1.5" opacity="0.42"/>
<line x1="806.00" y1="288.92" x2="814.00" y2="288.92" stroke="#047857" stroke-width="1.5" opacity="0.42"/>
<polyline points="90.00,350.46 450.00,325.85 810.00,313.54" fill="none" stroke="#047857" stroke-width="2.8" stroke-linejoin="round" stroke-linecap="round"/>
<circle cx="90.00" cy="350.46" r="4.50" fill="#047857" stroke="#ffffff" stroke-width="1.5"/>
<circle cx="450.00" cy="325.85" r="4.50" fill="#047857" stroke="#ffffff" stroke-width="1.5"/>
<circle cx="810.00" cy="313.54" r="4.50" fill="#047857" stroke="#ffffff" stroke-width="1.5"/>
<line x1="90.00" y1="479.69" x2="90.00" y2="185.54" stroke="#dc2626" stroke-width="1.5" opacity="0.42"/>
<line x1="86.00" y1="479.69" x2="94.00" y2="479.69" stroke="#dc2626" stroke-width="1.5" opacity="0.42"/>
<line x1="86.00" y1="185.54" x2="94.00" y2="185.54" stroke="#dc2626" stroke-width="1.5" opacity="0.42"/>
<line x1="450.00" y1="389.85" x2="450.00" y2="152.31" stroke="#dc2626" stroke-width="1.5" opacity="0.42"/>
<line x1="446.00" y1="389.85" x2="454.00" y2="389.85" stroke="#dc2626" stroke-width="1.5" opacity="0.42"/>
<line x1="446.00" y1="152.31" x2="454.00" y2="152.31" stroke="#dc2626" stroke-width="1.5" opacity="0.42"/>
<line x1="810.00" y1="365.23" x2="810.00" y2="237.23" stroke="#dc2626" stroke-width="1.5" opacity="0.42"/>
<line x1="806.00" y1="365.23" x2="814.00" y2="365.23" stroke="#dc2626" stroke-width="1.5" opacity="0.42"/>
<line x1="806.00" y1="237.23" x2="814.00" y2="237.23" stroke="#dc2626" stroke-width="1.5" opacity="0.42"/>
<polyline points="90.00,350.46 450.00,301.23 810.00,325.85" fill="none" stroke="#dc2626" stroke-width="2.8" stroke-linejoin="round" stroke-linecap="round" stroke-dasharray="7 5"/>
<circle cx="90.00" cy="350.46" r="4.50" fill="#dc2626" stroke="#ffffff" stroke-width="1.5"/>
<circle cx="450.00" cy="301.23" r="4.50" fill="#dc2626" stroke="#ffffff" stroke-width="1.5"/>
<circle cx="810.00" cy="325.85" r="4.50" fill="#dc2626" stroke="#ffffff" stroke-width="1.5"/>
<line x1="90.00" y1="425.54" x2="90.00" y2="223.69" stroke="#d97706" stroke-width="1.5" opacity="0.42"/>
<line x1="86.00" y1="425.54" x2="94.00" y2="425.54" stroke="#d97706" stroke-width="1.5" opacity="0.42"/>
<line x1="86.00" y1="223.69" x2="94.00" y2="223.69" stroke="#d97706" stroke-width="1.5" opacity="0.42"/>
<line x1="450.00" y1="416.92" x2="450.00" y2="190.46" stroke="#d97706" stroke-width="1.5" opacity="0.42"/>
<line x1="446.00" y1="416.92" x2="454.00" y2="416.92" stroke="#d97706" stroke-width="1.5" opacity="0.42"/>
<line x1="446.00" y1="190.46" x2="454.00" y2="190.46" stroke="#d97706" stroke-width="1.5" opacity="0.42"/>
<line x1="810.00" y1="327.08" x2="810.00" y2="201.54" stroke="#d97706" stroke-width="1.5" opacity="0.42"/>
<line x1="806.00" y1="327.08" x2="814.00" y2="327.08" stroke="#d97706" stroke-width="1.5" opacity="0.42"/>
<line x1="806.00" y1="201.54" x2="814.00" y2="201.54" stroke="#d97706" stroke-width="1.5" opacity="0.42"/>
<polyline points="90.00,338.15 450.00,313.54 810.00,264.31" fill="none" stroke="#d97706" stroke-width="2.8" stroke-linejoin="round" stroke-linecap="round"/>
<circle cx="90.00" cy="338.15" r="4.50" fill="#d97706" stroke="#ffffff" stroke-width="1.5"/>
<circle cx="450.00" cy="313.54" r="4.50" fill="#d97706" stroke="#ffffff" stroke-width="1.5"/>
<circle cx="810.00" cy="264.31" r="4.50" fill="#d97706" stroke="#ffffff" stroke-width="1.5"/>
<line x1="844.00" y1="104.00" x2="872.00" y2="104.00" stroke="#047857" stroke-width="3" opacity="1.0"/>
<circle cx="858.00" cy="104.00" r="3.50" fill="#047857" stroke="#ffffff" stroke-width="1.5"/>
<text class="legend" x="882.00" y="108.00" font-size="12" text-anchor="start">Affine ChannelLiRA</text>
<line x1="844.00" y1="132.00" x2="872.00" y2="132.00" stroke="#dc2626" stroke-width="3" opacity="1.0" stroke-dasharray="7 5"/>
<circle cx="858.00" cy="132.00" r="3.50" fill="#dc2626" stroke="#ffffff" stroke-width="1.5"/>
<text class="legend" x="882.00" y="136.00" font-size="12" text-anchor="start">Mismatched LiRA</text>
<line x1="844.00" y1="160.00" x2="872.00" y2="160.00" stroke="#d97706" stroke-width="3" opacity="1.0"/>
<circle cx="858.00" cy="160.00" r="3.50" fill="#d97706" stroke="#ffffff" stroke-width="1.5"/>
<text class="legend" x="882.00" y="164.00" font-size="12" text-anchor="start">Loss MIA</text>
</svg>
