<svg xmlns="http://www.w3.org/2000/svg" width="1400" height="650" viewBox="0 0 1400 650">
<rect width="100%" height="100%" fill="#ffffff"/>
<style>text{font-family:Inter,system-ui,-apple-system,sans-serif;fill:#1f2937}.grid{stroke:#e5e7eb;stroke-width:1}.axis{stroke:#374151;stroke-width:1.2}.tick{font-size:12px;fill:#4b5563}.title{font-size:22px;font-weight:700}.subtitle{font-size:12px;fill:#6b7280}.legend{font-size:12px}</style>
<text class="title" x="70.00" y="34.00" font-size="12" text-anchor="start">Reference-count sensitivity under IBM-derived noisy Aer</text>
<text class="subtitle" x="70.00" y="57.00" font-size="12" text-anchor="start">Overall AUC; the same exactly balanced reference subsets are used for every attack</text>
<text x="300.00" y="90.00" font-size="15" text-anchor="middle" font-weight="650">128 shots</text>
<line class="grid" x1="90.00" y1="545.00" x2="510.00" y2="545.00" stroke="#374151" stroke-width="1.0" opacity="1.0"/>
<text class="tick" x="80.00" y="549.00" font-size="12" text-anchor="end">0.51</text>
<line class="grid" x1="90.00" y1="457.00" x2="510.00" y2="457.00" stroke="#374151" stroke-width="1.0" opacity="1.0"/>
<text class="tick" x="80.00" y="461.00" font-size="12" text-anchor="end">0.53</text>
<line class="grid" x1="90.00" y1="369.00" x2="510.00" y2="369.00" stroke="#374151" stroke-width="1.0" opacity="1.0"/>
<text class="tick" x="80.00" y="373.00" font-size="12" text-anchor="end">0.55</text>
<line class="grid" x1="90.00" y1="281.00" x2="510.00" y2="281.00" stroke="#374151" stroke-width="1.0" opacity="1.0"/>
<text class="tick" x="80.00" y="285.00" font-size="12" text-anchor="end">0.57</text>
<line class="grid" x1="90.00" y1="193.00" x2="510.00" y2="193.00" stroke="#374151" stroke-width="1.0" opacity="1.0"/>
<text class="tick" x="80.00" y="197.00" font-size="12" text-anchor="end">0.59</text>
<line class="grid" x1="90.00" y1="105.00" x2="510.00" y2="105.00" stroke="#374151" stroke-width="1.0" opacity="1.0"/>
<text class="tick" x="80.00" y="109.00" font-size="12" text-anchor="end">0.61</text>
<line class="axis" x1="90.00" y1="105.00" x2="90.00" y2="545.00" stroke="#374151" stroke-width="1.0" opacity="1.0"/>
<line class="axis" x1="90.00" y1="545.00" x2="510.00" y2="545.00" stroke="#374151" stroke-width="1.0" opacity="1.0"/>
<text class="tick" x="90.00" y="569.00" font-size="12" text-anchor="middle">4</text>
<text class="tick" x="300.00" y="569.00" font-size="12" text-anchor="middle">8</text>
<text class="tick" x="510.00" y="569.00" font-size="12" text-anchor="middle">16</text>
<polyline points="90.00,373.57 300.00,302.19 510.00,275.84" fill="none" stroke="#047857" stroke-width="2.8" stroke-linejoin="round" stroke-linecap="round"/>
<circle cx="90.00" cy="373.57" r="4.50" fill="#047857" stroke="#ffffff" stroke-width="1.5"/>
<circle cx="300.00" cy="302.19" r="4.50" fill="#047857" stroke="#ffffff" stroke-width="1.5"/>
<circle cx="510.00" cy="275.84" r="4.50" fill="#047857" stroke="#ffffff" stroke-width="1.5"/>
<polyline points="90.00,467.70 300.00,307.39 510.00,301.67" fill="none" stroke="#dc2626" stroke-width="2.8" stroke-linejoin="round" stroke-linecap="round" stroke-dasharray="7 5"/>
<circle cx="90.00" cy="467.70" r="4.50" fill="#dc2626" stroke="#ffffff" stroke-width="1.5"/>
<circle cx="300.00" cy="307.39" r="4.50" fill="#dc2626" stroke="#ffffff" stroke-width="1.5"/>
<circle cx="510.00" cy="301.67" r="4.50" fill="#dc2626" stroke="#ffffff" stroke-width="1.5"/>
<polyline points="90.00,368.42 300.00,285.78 510.00,277.14" fill="none" stroke="#0891b2" stroke-width="2.8" stroke-linejoin="round" stroke-linecap="round"/>
<circle cx="90.00" cy="368.42" r="4.50" fill="#0891b2" stroke="#ffffff" stroke-width="1.5"/>
<circle cx="300.00" cy="285.78" r="4.50" fill="#0891b2" stroke="#ffffff" stroke-width="1.5"/>
<circle cx="510.00" cy="277.14" r="4.50" fill="#0891b2" stroke="#ffffff" stroke-width="1.5"/>
<polyline points="90.00,371.13 300.00,319.37 510.00,282.49" fill="none" stroke="#2563eb" stroke-width="2.8" stroke-linejoin="round" stroke-linecap="round"/>
<circle cx="90.00" cy="371.13" r="4.50" fill="#2563eb" stroke="#ffffff" stroke-width="1.5"/>
<circle cx="300.00" cy="319.37" r="4.50" fill="#2563eb" stroke="#ffffff" stroke-width="1.5"/>
<circle cx="510.00" cy="282.49" r="4.50" fill="#2563eb" stroke="#ffffff" stroke-width="1.5"/>
<text x="300.00" y="622.00" font-size="13" text-anchor="middle">Reference models</text>
<text x="800.00" y="90.00" font-size="15" text-anchor="middle" font-weight="650">1024 shots</text>
<line class="grid" x1="590.00" y1="545.00" x2="1010.00" y2="545.00" stroke="#374151" stroke-width="1.0" opacity="1.0"/>
<text class="tick" x="580.00" y="549.00" font-size="12" text-anchor="end">0.51</text>
<line class="grid" x1="590.00" y1="457.00" x2="1010.00" y2="457.00" stroke="#374151" stroke-width="1.0" opacity="1.0"/>
<text class="tick" x="580.00" y="461.00" font-size="12" text-anchor="end">0.53</text>
<line class="grid" x1="590.00" y1="369.00" x2="1010.00" y2="369.00" stroke="#374151" stroke-width="1.0" opacity="1.0"/>
<text class="tick" x="580.00" y="373.00" font-size="12" text-anchor="end">0.55</text>
<line class="grid" x1="590.00" y1="281.00" x2="1010.00" y2="281.00" stroke="#374151" stroke-width="1.0" opacity="1.0"/>
<text class="tick" x="580.00" y="285.00" font-size="12" text-anchor="end">0.57</text>
<line class="grid" x1="590.00" y1="193.00" x2="1010.00" y2="193.00" stroke="#374151" stroke-width="1.0" opacity="1.0"/>
<text class="tick" x="580.00" y="197.00" font-size="12" text-anchor="end">0.59</text>
<line class="grid" x1="590.00" y1="105.00" x2="1010.00" y2="105.00" stroke="#374151" stroke-width="1.0" opacity="1.0"/>
<text class="tick" x="580.00" y="109.00" font-size="12" text-anchor="end">0.61</text>
<line class="axis" x1="590.00" y1="105.00" x2="590.00" y2="545.00" stroke="#374151" stroke-width="1.0" opacity="1.0"/>
<line class="axis" x1="590.00" y1="545.00" x2="1010.00" y2="545.00" stroke="#374151" stroke-width="1.0" opacity="1.0"/>
<text class="tick" x="590.00" y="569.00" font-size="12" text-anchor="middle">4</text>
<text class="tick" x="800.00" y="569.00" font-size="12" text-anchor="middle">8</text>
<text class="tick" x="1010.00" y="569.00" font-size="12" text-anchor="middle">16</text>
<polyline points="590.00,327.28 800.00,203.69 1010.00,162.52" fill="none" stroke="#047857" stroke-width="2.8" stroke-linejoin="round" stroke-linecap="round"/>
<circle cx="590.00" cy="327.28" r="4.50" fill="#047857" stroke="#ffffff" stroke-width="1.5"/>
<circle cx="800.00" cy="203.69" r="4.50" fill="#047857" stroke="#ffffff" stroke-width="1.5"/>
<circle cx="1010.00" cy="162.52" r="4.50" fill="#047857" stroke="#ffffff" stroke-width="1.5"/>
<polyline points="590.00,427.27 800.00,232.92 1010.00,182.21" fill="none" stroke="#dc2626" stroke-width="2.8" stroke-linejoin="round" stroke-linecap="round" stroke-dasharray="7 5"/>
<circle cx="590.00" cy="427.27" r="4.50" fill="#dc2626" stroke="#ffffff" stroke-width="1.5"/>
<circle cx="800.00" cy="232.92" r="4.50" fill="#dc2626" stroke="#ffffff" stroke-width="1.5"/>
<circle cx="1010.00" cy="182.21" r="4.50" fill="#dc2626" stroke="#ffffff" stroke-width="1.5"/>
<polyline points="590.00,308.18 800.00,194.21 1010.00,185.45" fill="none" stroke="#0891b2" stroke-width="2.8" stroke-linejoin="round" stroke-linecap="round"/>
<circle cx="590.00" cy="308.18" r="4.50" fill="#0891b2" stroke="#ffffff" stroke-width="1.5"/>
<circle cx="800.00" cy="194.21" r="4.50" fill="#0891b2" stroke="#ffffff" stroke-width="1.5"/>
<circle cx="1010.00" cy="185.45" r="4.50" fill="#0891b2" stroke="#ffffff" stroke-width="1.5"/>
<polyline points="590.00,335.12 800.00,179.65 1010.00,172.22" fill="none" stroke="#2563eb" stroke-width="2.8" stroke-linejoin="round" stroke-linecap="round"/>
<circle cx="590.00" cy="335.12" r="4.50" fill="#2563eb" stroke="#ffffff" stroke-width="1.5"/>
<circle cx="800.00" cy="179.65" r="4.50" fill="#2563eb" stroke="#ffffff" stroke-width="1.5"/>
<circle cx="1010.00" cy="172.22" r="4.50" fill="#2563eb" stroke="#ffffff" stroke-width="1.5"/>
<text x="800.00" y="622.00" font-size="13" text-anchor="middle">Reference models</text>
<line x1="1060.00" y1="125.00" x2="1088.00" y2="125.00" stroke="#047857" stroke-width="3" opacity="1.0"/>
<circle cx="1074.00" cy="125.00" r="3.50" fill="#047857" stroke="#ffffff" stroke-width="1.5"/>
<text x="1098.00" y="129.00" font-size="11" text-anchor="start">Affine ChannelLiRA</text>
<line x1="1060.00" y1="155.00" x2="1088.00" y2="155.00" stroke="#dc2626" stroke-width="3" opacity="1.0" stroke-dasharray="7 5"/>
<circle cx="1074.00" cy="155.00" r="3.50" fill="#dc2626" stroke="#ffffff" stroke-width="1.5"/>
<text x="1098.00" y="159.00" font-size="11" text-anchor="start">Mismatched LiRA</text>
<line x1="1060.00" y1="185.00" x2="1088.00" y2="185.00" stroke="#0891b2" stroke-width="3" opacity="1.0"/>
<circle cx="1074.00" cy="185.00" r="3.50" fill="#0891b2" stroke="#ffffff" stroke-width="1.5"/>
<text x="1098.00" y="189.00" font-size="11" text-anchor="start">Empirical ChannelLiRA</text>
<line x1="1060.00" y1="215.00" x2="1088.00" y2="215.00" stroke="#2563eb" stroke-width="3" opacity="1.0"/>
<circle cx="1074.00" cy="215.00" r="3.50" fill="#2563eb" stroke="#ffffff" stroke-width="1.5"/>
<text x="1098.00" y="219.00" font-size="11" text-anchor="start">Noise-augmented LiRA</text>
<text x="20.00" y="325.00" font-size="13" text-anchor="middle" transform="rotate(-90.0 20.00 325.00)">Attack AUC</text>
</svg>
